<svg xmlns="http://www.w3.org/2000/svg" viewBox="0 0 96 96" role="img" aria-label="Kırmızı siyah ejderha">
  <circle cx="48" cy="48" r="46" fill="#08090d" stroke="#ef343c" stroke-width="3"/>
  <path d="M17 79c4-12 10-21 19-27L18 45l13-6-9-16 20 11 4-25 10 19 16-16-3 24c8 6 13 15 14 25l-8 4 12 7-16 3-9 13-21-3-11 4 4-13z" fill="#151820" stroke="#ff4248" stroke-width="4.5" stroke-linejoin="round"/>
  <path d="M31 56c10-10 20-13 33-9l17 13-17 5-9 10-26-2 8-8-12-2z" fill="#262a32" stroke="#0b0b10" stroke-width="3" stroke-linejoin="round"/>
  <path d="m34 63 27 2 17-4-12 15-26 1-11-7z" fill="#d52731" stroke="#0b0b10" stroke-width="2.5" stroke-linejoin="round"/>
  <path d="m40 65 4 7 4-7m7 1 4 7 4-9m6-2 3 7" fill="#fff" stroke="#1b1217" stroke-width="2" stroke-linejoin="round"/>
  <path d="M49 47c5-6 12-7 19-3-4 7-10 10-18 9z" fill="#fff" stroke="#111" stroke-width="2.5"/>
  <path d="m58 45 3 8 4-9" fill="#e51e2c"/>
  <path d="M77 56c4-3 8-3 11 0l-4 3-8-1" fill="#09090b"/>
</svg>
